<svg width="20" height="20" viewBox="0 0 20 20" fill="none" xmlns="http://www.w3.org/2000/svg">
<rect width="20" height="20" fill="#261200"/>
<path d="M5.81756 3.75C6.39383 3.75 6.92619 3.79391 7.41465 3.92562C7.9031 4.01344 8.30375 4.19455 8.66048 4.41408C9.01722 4.63361 9.28066 4.94644 9.46177 5.34709C9.63739 5.74773 9.7307 6.23618 9.7307 6.76855C9.7307 7.38872 9.59898 7.92108 9.28615 8.32173C9.01722 8.72237 8.57816 9.07911 8.04031 9.34254C8.79769 9.56207 9.37396 9.96272 9.72521 10.4951C10.0765 11.0274 10.3015 11.6915 10.3015 12.4489C10.3015 13.0691 10.1698 13.6014 9.94474 14.046C9.72521 14.4905 9.36847 14.8912 8.96783 15.1546C8.56718 15.4235 8.07873 15.6431 7.54637 15.7748C7.014 15.9065 6.48164 15.9943 5.94928 15.9943L0 16.0053V3.75H5.81756ZM5.46082 8.72237C5.94928 8.72237 6.34992 8.59065 6.65727 8.36563C6.96461 8.14061 7.10182 7.74546 7.10182 7.257C7.10182 6.98808 7.05791 6.72464 6.9701 6.54902C6.88229 6.37339 6.75057 6.23618 6.56945 6.10447C6.39383 6.01665 6.21272 5.92884 5.99319 5.88494C5.77366 5.84103 5.54864 5.84103 5.2852 5.84103H2.7112V8.72786C2.7112 8.72237 5.46082 8.72237 5.46082 8.72237ZM5.59254 13.9637C5.86147 13.9637 6.1249 13.9198 6.34992 13.8759C6.56945 13.8319 6.79447 13.7441 6.9701 13.6069C7.14572 13.4697 7.28293 13.338 7.41465 13.1185C7.50246 12.8989 7.59027 12.63 7.59027 12.3172C7.59027 11.697 7.41465 11.2525 7.05791 10.9396C6.70117 10.6707 6.21272 10.539 5.63645 10.539H2.7112V13.9582H5.59254V13.9637Z" fill="white"/>
<path d="M14.1652 13.9198C14.522 14.2765 15.0543 14.4521 15.7623 14.4521C16.2508 14.4521 16.6953 14.3204 17.052 14.0954C17.4088 13.8265 17.6283 13.563 17.7161 13.2941H19.8895C19.5327 14.3588 19.0004 15.1162 18.2924 15.6047C17.5844 16.0492 16.7392 16.3126 15.7184 16.3126C15.0104 16.3126 14.3847 16.1809 13.8085 15.9559C13.2322 15.7364 12.7877 15.4235 12.387 14.979C11.9864 14.5784 11.679 14.0899 11.4979 13.5136C11.2784 12.9374 11.1851 12.3172 11.1851 11.6037C11.1851 10.9396 11.2729 10.314 11.4979 9.7377C11.7229 9.16143 12.0303 8.67298 12.4309 8.22843C12.8316 7.82778 13.32 7.47105 13.8524 7.25152C14.4287 7.03198 15.0049 6.89478 15.7184 6.89478C16.4758 6.89478 17.1399 7.0265 17.7161 7.33933C18.2924 7.65216 18.7369 8.00341 19.0937 8.53577C19.4504 9.02422 19.7139 9.60049 19.895 10.2207C19.9828 10.8408 20.0267 11.4665 19.9828 12.1745H13.545C13.545 12.8989 13.8085 13.563 14.1652 13.9198ZM16.9642 9.25473C16.6514 8.9419 16.1629 8.76628 15.5867 8.76628C15.186 8.76628 14.8787 8.85409 14.6098 8.98581C14.3408 9.11753 14.1652 9.29864 13.9896 9.47426C13.814 9.64989 13.7207 9.87491 13.6768 10.0944C13.6329 10.314 13.5889 10.4951 13.5889 10.6707H17.5844C17.4966 10.0121 17.2716 9.56756 16.9642 9.25473ZM13.0566 4.59519H18.029V5.79164H13.0566V4.59519Z" fill="white"/>
</svg>
