<svg width="965" height="363" viewBox="0 0 965 363" fill="none" xmlns="http://www.w3.org/2000/svg">
<path d="M796.003 361.622C794.171 361.135 792.807 360.917 791.361 361.916C790.295 362.652 789.004 362.139 788.242 361.3C787.306 360.273 786.67 358.967 785.975 357.749C785.697 357.264 785.77 356.503 785.408 356.178C783.944 354.846 784.201 353.207 784.586 351.659C784.997 350.03 785.293 348.425 785.5 346.751C785.679 345.344 785.579 344.219 784.903 343.034C787.177 340.528 787.973 337.517 788.475 334.393C788.532 334.014 788.74 333.552 788.593 333.272C787.175 330.504 788.96 328.327 789.973 326.087C790.913 323.987 792.155 322.042 791.173 319.552C793.386 318.864 794.081 317.793 793.8 315.527C793.585 313.803 794.678 311.91 795.175 310.091C795.326 309.542 795.711 308.905 795.556 308.45C794.778 306.17 796.076 304.612 797.32 303.071C797.954 302.286 798.262 301.572 798.007 300.592C797.89 300.18 797.864 299.495 797.955 299.066C798.563 296.384 799.2 293.714 799.869 291.047C799.982 290.599 800.299 290.206 800.544 289.799C801.64 288.009 802.583 285.423 802.721 283.392C802.896 280.815 803.231 278.332 805.098 276.326C805.266 276.141 805.339 275.825 805.378 275.558C806.004 271.842 806.017 271.802 808.422 269.656C808.141 269.057 807.833 268.405 807.634 267.987C808.096 266.372 808.515 264.941 808.913 263.498C809.092 262.857 809.023 262.035 809.405 261.595C812.286 258.25 812.246 253.96 813.322 250.016C813.475 249.456 813.834 248.59 814.076 248.079C814.763 246.666 815.387 245.258 815.357 243.569C815.346 242.812 816.112 242.067 816.384 241.267C816.782 240.135 817.276 238.967 817.335 237.791C817.424 235.881 816.868 235.822 814.907 236.32C809.982 237.559 805.281 239.796 800.106 239.847C797.845 239.869 795.633 240.236 793.426 240.376C790.96 240.529 788.313 239.82 785.948 238.934C783.058 237.847 780.004 236.893 777.842 234.395C774.633 230.676 771.127 227.207 769.249 222.512C768.478 220.596 767.173 218.902 766.327 217.021C765.4 214.96 764.321 212.836 764.014 210.651C763.358 205.967 762.863 201.211 762.831 196.487C762.81 191.774 763.019 187.015 764.175 182.372C764.759 180.02 764.978 177.57 765.399 174.876C764.688 175.127 764.076 175.137 763.868 175.444C762.336 177.701 759.581 177.989 757.565 179.436C755.571 180.864 753.404 182.104 751.454 183.503C747.924 186.028 743.775 187.598 740.748 190.965C739.033 192.877 736.448 194.006 734.244 195.481C733.69 195.847 733.01 196.091 732.584 196.569C729.113 200.527 724.345 202.511 719.915 205.025C718.135 206.043 716.672 207.6 715.002 208.833C713.476 209.951 711.988 211.247 710.273 211.938C707.151 213.185 705.187 215.857 702.536 217.655C700.352 219.142 698.422 220.999 696.275 222.55C694.466 223.856 692.561 225.041 690.62 226.152C689.251 226.928 685.31 226.359 684.207 225.363C681.026 222.464 678.236 219.281 676.777 215.133C676.596 214.603 676.348 213.975 675.923 213.666C674.533 212.629 674.012 211.144 673.62 209.585C672.673 205.834 671.126 202.218 671.262 198.23C671.306 196.825 670.853 195.417 670.835 193.997C670.791 189.314 672.405 185.085 674.559 180.997C676.367 177.568 678.106 174.093 679.795 170.595C680.265 169.622 680.434 168.515 680.935 166.779C679.207 167.655 678.07 168.075 677.111 168.755C675.326 170.01 673.675 171.441 671.927 172.751C670.42 173.89 668.882 175.018 667.308 176.06C665.724 177.102 664.065 178.024 662.464 179.023C660.862 180.022 659.297 181.085 657.686 182.063C655.838 183.179 654.127 184.419 652.513 185.904C650.81 187.476 648.529 188.397 646.593 189.746C643.035 192.237 639.6 194.892 636.013 197.34C634.003 198.715 631.803 199.818 629.698 201.062C629.05 201.442 628.292 201.774 627.818 202.332C625.555 204.984 622.467 206.502 619.653 208.402C616.829 210.312 614.127 212.406 611.369 214.403C610.29 215.178 609.192 215.932 608.114 216.708C605.171 218.827 602.587 221.312 600.223 224.081C598.703 225.852 596.808 227.359 594.911 228.741C593.275 229.934 589.091 229.131 587.413 227.588C586.584 226.827 585.711 226.105 584.86 225.353C584.576 225.106 584.147 224.86 584.085 224.555C583.752 222.896 582.509 221.983 581.524 220.767C579.821 218.673 578.562 216.154 577.415 213.673C576.429 211.556 575.744 209.283 575.132 207.014C574.643 205.2 574.525 203.287 574.153 201.439C573.882 200.095 573.464 198.772 573.091 197.39C567.463 201.967 562.13 206.325 556.768 210.661C554.278 212.676 551.807 214.724 549.214 216.577C547.701 217.654 545.549 218.056 544.411 219.387C543.229 220.766 542.151 221.997 540.571 222.977C539.176 223.835 538.249 225.428 537 226.575C532.181 230.99 527.111 234.983 520.757 237.128C517.469 238.24 514.951 237.167 512.5 235.105C511.745 234.474 511.08 233.735 510.502 232.94C508.835 230.631 507.299 228.227 505.696 225.881C505.385 225.435 505.052 224.843 504.597 224.678C502.818 224.008 502.173 222.669 501.929 220.923C501.614 218.551 500.714 216.243 498.948 214.621C498.363 214.084 498.016 213.232 497.79 212.45C496.844 209.135 496.949 205.756 497.212 202.346C497.368 200.358 497.38 198.36 497.287 196.366C497.228 195.099 496.346 194.655 495.321 195.414C491.95 197.887 488.674 200.49 485.352 203.018C483.788 204.217 482.243 205.447 480.785 206.777C478.564 208.8 476.392 210.878 474.201 212.924C473.094 213.957 472.007 215.001 470.919 216.066C464.815 222.008 458.72 227.971 452.617 233.903C450.597 235.867 448.355 237.288 445.345 237.197C444.063 237.161 443.083 236.939 442.587 235.694C442.187 234.714 441.515 234.233 440.458 234.079C439.945 234.002 439.191 233.661 439.053 233.258C438.315 231.147 436.525 230.041 435.014 228.634C434.488 228.142 433.912 227.316 433.965 226.698C434.124 224.814 433.14 223.432 432.286 221.965C431.088 219.927 430.174 217.824 429.416 215.546C428.711 213.417 428.197 211.228 427.534 209.091C426.999 207.357 426.861 205.576 427.604 203.794C428.064 202.666 427.953 202.617 427.123 201.111C423.793 203.141 420.463 205.171 417.133 207.202C416.97 207.305 416.799 207.531 416.666 207.512C414.022 207.073 413.108 209.537 411.367 210.609C407.278 213.126 403.18 215.633 399.008 217.999C396.205 219.589 393.358 221.228 390.343 222.286C385.809 223.882 381.296 225.925 376.305 225.554C372.883 225.29 369.722 224.525 367.141 221.781C364.889 219.391 362.05 217.551 359.522 215.401C356.877 213.15 355.308 210.164 353.829 207.071C351.806 202.833 350.861 198.284 349.546 193.846C348.626 190.759 349.099 187.613 349.753 184.551C350.241 182.254 351.107 180.035 351.851 177.632C350.67 177.468 349.571 177.321 348.298 177.141C348.431 178.382 347.953 179.323 346.404 179.538C345.777 179.62 345.225 180.11 344.608 180.348C342.555 181.13 340.811 182.388 338.283 182.371C336.202 182.353 333.676 183.527 332.135 184.996C329.93 187.093 327.331 188.283 324.781 189.662C323.866 190.159 322.924 190.613 321.915 191.124C321.344 190.671 320.803 190.251 320.115 189.696C319.831 190.516 319.792 191.404 319.404 191.615C316.94 192.949 314.393 194.132 311.884 195.369C311.751 195.194 311.617 195.03 311.484 194.855C311.822 194.454 312.17 194.063 312.508 193.662C312.357 193.589 312.142 193.409 312.066 193.455C309.128 195.202 305.573 195.819 303.125 198.448C302.174 199.471 301.116 200.403 300.106 201.38C300.028 201.458 299.946 201.607 299.928 201.72C299.122 206.252 295.169 209.214 293.961 213.563C293.798 214.142 293.281 214.728 292.769 215.097C291.101 216.309 290.107 217.971 289.037 219.679C287.908 221.497 286.283 223.001 284.846 224.622C284.24 225.306 283.28 225.707 283.558 226.947C283.644 227.357 283.253 228.076 282.872 228.35C281.859 229.068 281.296 229.889 281.26 231.171C281.251 231.616 280.631 232.039 280.301 232.472C278.463 234.822 276.614 237.171 274.776 239.51C274.391 239.991 273.996 240.461 273.591 240.931C271.85 242.914 270.119 244.898 268.348 246.859C263.966 251.707 259.778 256.754 255.134 261.336C248.18 268.203 241.099 274.948 233.008 280.538C230.996 281.933 229.344 283.829 227.34 285.256C224.562 287.241 221.51 288.835 218.78 290.876C213.954 294.482 208.433 296.88 203.378 300.046C197.651 303.643 191.608 306.555 185.589 309.572C180.309 312.225 174.944 314.614 169.4 316.587C163.336 318.742 157.5 321.658 150.998 322.478C148.949 322.742 146.911 323.141 144.883 323.542C144.347 323.65 143.874 324.063 143.345 324.214C142.373 324.489 141.372 324.731 140.368 324.86C139.062 325.019 137.72 324.948 136.422 325.14C132.495 325.731 128.601 326.45 124.676 327.021C121.808 327.437 118.918 327.716 116.046 328.038C115.911 328.049 115.759 327.842 115.424 327.592C115.902 327.107 116.358 326.651 117.215 325.788C114.488 326.42 112.343 327.175 110.143 327.366C108.037 327.544 105.878 327.148 103.474 326.984C104.088 326.343 104.568 325.837 105.059 325.322C104.931 325.209 104.821 325.005 104.677 324.985C102.14 324.657 99.6983 324.439 97.1083 325.339C95.1129 326.031 92.7773 325.934 90.6039 325.89C87.676 325.814 84.7706 325.409 81.8388 325.241C81.0231 325.195 79.9969 325.198 79.4069 325.644C77.944 326.735 76.4104 326.579 74.7694 326.478C66.0585 325.946 57.6859 323.791 49.4399 321.148C44.1047 319.438 38.8021 317.555 33.6671 315.341C30.8074 314.11 28.2043 312.307 25.0267 311.79C24.4215 311.697 23.8341 311.191 23.3566 310.744C22.4224 309.852 21.5886 308.853 20.1981 308.727C19.9918 308.713 19.6879 308.61 19.5305 308.485C16.6047 306.246 13.6892 304.007 10.7744 301.758C10.5676 301.599 10.4744 301.293 10.018 300.537C10.5307 300.313 11.1074 300.062 11.6944 299.812C11.5229 299.438 11.449 299.153 11.2869 298.946C10.3744 297.734 9.30967 296.626 8.53753 295.331C7.14289 292.978 5.83428 290.58 4.66538 288.108C3.3785 285.39 2.23132 282.599 1.19011 279.774C0.90154 278.988 0.857323 277.504 1.32754 277.143C4.36708 274.813 5.19844 271.121 7.06203 268.1C9.83398 263.609 13.3571 260.111 17.7831 257.357C19.168 256.499 19.7898 254.823 21.3604 253.977C24.0288 252.533 26.6339 251.106 29.5871 250.199C32.5196 249.291 35.5799 248.485 38.2213 246.676C39.3729 245.895 40.8295 245.508 42.1836 245.103C46.1832 243.895 50.235 242.835 54.2264 241.596C57.4975 240.586 60.6732 239.301 63.9539 238.303C68.0389 237.059 72.1931 236.017 76.2856 234.815C78.4537 234.176 80.5635 233.326 82.7226 232.665C84.4373 232.14 86.1815 231.637 87.9419 231.354C92.2476 230.674 96.0822 228.388 100.524 227.986C103.403 227.727 106.183 226.467 109.023 225.697C110.469 225.309 111.976 225.101 113.414 224.681C114.766 224.297 116.042 223.67 117.385 223.274C123.022 221.619 128.676 220.016 134.311 218.37C134.766 218.236 135.176 217.994 135.604 217.796L135.518 217.852C138.372 217.177 141.244 216.554 144.092 215.817C146.761 215.129 149.405 214.356 152.049 213.573C154.323 212.9 156.57 212.163 158.922 211.412L159.063 209.34C160.819 208.963 162.523 208.592 164.227 208.221C164.308 208.403 164.4 208.575 164.481 208.756C163.913 209.184 163.345 209.611 162.756 210.047C162.944 210.174 163.126 210.393 163.212 210.358C164.322 209.885 165.87 209.669 166.425 208.816C167.838 206.645 169.972 206.035 172.147 205.448C174.344 204.841 176.606 204.499 178.826 204.008C179.458 203.864 180.057 203.595 180.654 203.345C180.995 203.203 181.303 202.789 181.635 202.791C185.345 202.785 188.289 200.19 191.893 199.762C193.199 199.613 194.485 199.142 195.712 198.625C199.211 197.165 202.911 196.402 206.561 195.46C208.713 194.903 210.753 193.861 212.813 192.977C214.575 192.216 216.285 191.598 218.089 193.119C218.746 191.683 219.926 191.09 221.577 190.747C223.774 190.296 225.835 189.246 227.996 188.554C230.147 187.862 232.34 187.307 234.508 186.679C235.607 186.37 236.731 186.136 237.786 185.711C239.172 185.153 240.399 184.471 242.07 184.595C243.256 184.686 244.598 183.845 245.74 183.199C249.287 181.183 253.236 180.271 257.06 179.051C259.253 178.352 259.313 178.532 261.224 179.998L261.985 177.948C263.241 177.464 264.55 176.963 266.21 176.33C265.932 177.212 265.759 177.77 265.585 178.348C268.33 178.67 271.041 177.364 272.161 175.224C275.412 175.881 275.749 175.8 278.575 173.559C277.785 173.298 277.136 173.088 276.315 172.815C276.488 172.247 276.673 171.669 276.887 170.959C275.515 170.099 274.926 169.003 275.278 167.184C275.52 165.916 274.861 164.473 274.591 163.109C274.213 161.198 273.836 159.278 273.426 157.375C273.292 156.755 273.164 155.742 272.799 155.624C271.087 155.052 271.406 153.562 271.124 152.372C270.309 152.162 269.137 152.175 268.889 151.702C268.514 150.973 268.441 149.756 268.801 149.035C270.368 145.953 270.248 142.227 272.698 139.432C273.776 138.201 274.072 136.295 275.054 134.954C278.619 130.082 282.332 125.323 285.996 120.509C287.714 118.255 289.383 115.966 291.16 113.757C293.879 110.349 296.835 107.113 299.376 103.579C301.734 100.302 304.457 97.2982 306.196 93.5129C308.166 89.2359 312.062 86.3432 314.962 82.7198C316.672 80.579 318.098 78.2116 319.75 76.0151C323.669 70.8044 326.975 65.1585 331.616 60.4732C333.797 58.2713 335.57 55.6585 337.499 53.2115C338.939 51.3836 340.184 49.3871 341.771 47.6935C344.016 45.3095 345.79 42.5414 347.213 39.594C348.721 36.466 350.622 33.5098 351.999 30.3314C352.675 28.7622 353.473 27.5532 354.459 26.9163C356.716 27.4015 358.671 27.6176 360.461 28.2677C362.413 28.9703 364.118 29.9666 364.547 32.4914C365.079 35.6445 365.719 38.8878 366.993 41.7912C369.02 46.4234 369.739 51.2564 370.359 56.1552C370.636 58.3382 370.194 60.5655 369.101 62.4688C367.397 65.4281 365.722 68.4101 364.199 71.4542C363.156 73.537 362.403 75.7638 361.481 77.9065C359.804 81.8307 358.138 85.7556 356.391 89.6543C354.45 93.9643 352.419 98.2268 350.439 102.513C349.211 105.174 348.175 107.909 346.246 110.222C345.603 110.996 345.807 112.408 345.365 113.423C344.504 115.415 343.641 117.438 342.461 119.242C338.749 124.912 337.289 131.605 333.577 137.265C332.155 139.425 331.397 141.89 330.629 144.354C330.496 144.78 330.182 145.131 329.889 145.474C328.088 147.577 328.08 149.378 329.884 151.645L329.838 151.569C330.196 152.091 330.543 152.622 330.968 153.241C332.563 152.48 333.673 150.795 335.621 151.404C335.753 151.444 336.002 151.296 336.114 151.169C338.559 148.281 342.254 147.59 345.395 145.909C348.31 144.347 351.261 142.861 354.25 141.428C355.621 140.776 357.101 140.339 358.612 139.768C359.767 138.625 361.127 137.372 362.36 136.006C362.899 135.401 363.154 134.548 363.615 133.865C363.892 133.449 364.338 133.138 364.705 132.77C364.809 132.911 364.867 133.122 364.997 133.204C365.265 133.367 365.569 133.47 365.851 133.593C365.903 133.441 366.036 133.161 366.006 133.148C365.727 132.984 365.436 132.83 365.132 132.737C364.979 132.695 364.786 132.796 364.607 132.835C366.057 131.93 366.057 131.93 367.534 132.32C368.301 130.933 369.008 129.542 369.833 128.221C370.043 127.883 370.629 127.644 371.066 127.611C374.39 127.362 376.765 125.038 379.601 123.73C379.89 123.594 380.142 122.928 380.062 122.581C379.999 122.297 379.467 122.033 379.092 121.914C378.798 121.822 378.416 121.951 378.014 121.768C381.336 118.94 383.976 114.864 389.184 116.161C390.291 113.741 390.557 111.057 392.881 109.486C393.197 109.269 393.451 108.883 393.788 108.802C396.476 108.136 397.528 105.93 398.649 103.769C398.863 103.36 399.098 102.951 399.192 102.792C401.155 102.418 402.866 102.1 404.577 101.781C404.829 101.737 405.26 101.642 405.346 101.761C406.313 103.08 407.74 102.67 409.015 102.819C410.373 102.974 411.099 103.717 411.353 105.018C412.226 109.406 413.257 113.743 414.838 117.93C415.803 120.502 415.992 123.363 416.522 126.091C417.175 129.439 417.566 132.531 414.925 135.55C412.779 138.003 411.455 141.175 409.749 144.01C409.457 144.487 409.116 145.085 408.648 145.26C406.816 145.995 405.974 147.698 405.027 149.124C403.467 151.503 402.032 153.849 399.894 155.888C397.543 158.141 395.889 161.134 394.004 163.854C392.832 165.544 391.809 167.339 390.656 169.041C390.357 169.487 389.79 169.748 389.37 170.124C388.951 170.499 388.38 170.822 388.182 171.295C386.089 176.32 382.488 180.351 379.482 184.775C378.872 185.676 378.469 186.715 377.907 187.826C379.761 188.605 380.978 187.776 382.203 187.135C387.901 184.117 393.609 181.099 399.28 178.027C400.926 177.134 402.443 176.006 404.072 175.071C407.933 172.849 411.822 170.68 415.702 168.491C417.351 167.557 419.03 166.646 420.642 165.638C423.37 163.929 426.013 162.1 428.749 160.423C429.906 159.715 431.157 159.003 432.451 158.718C436.532 157.836 439.362 154.933 442.678 152.808C442.83 152.705 443.035 152.574 443.078 152.411C443.659 150.256 445.452 149.342 447.007 147.967C449.642 145.641 452.292 143.243 455.276 141.583C460.413 138.733 463.796 134.252 467.602 130.1C469.718 127.79 471.961 125.593 474.116 123.317C478.057 119.153 481 114.29 483.823 109.347C484.423 108.3 484.712 107.088 485.302 106.041C486.02 104.774 487.513 104.151 488.945 104.435C490.509 104.749 492.057 105.155 493.622 105.458C494.235 105.583 494.87 105.554 495.53 105.599C496.657 108.834 497.828 112.186 499.01 115.538C499.07 115.719 499.254 115.907 499.224 116.05C498.137 120.905 500.816 125.261 500.995 129.943C501.01 130.327 500.974 130.708 500.907 131.086C500.438 133.716 500.444 133.778 501.626 136.354C498.494 138.222 496.662 141.38 494.305 144.036C491.286 147.444 488.228 150.808 485.326 154.307C483.576 156.424 482.111 158.768 480.488 160.987C478.43 163.829 476.342 166.638 474.283 169.48C474.031 169.836 473.898 170.272 473.537 171.014C475.698 170.012 477.522 169.256 479.243 168.327C480.308 167.758 481.178 166.844 482.216 166.221C483.318 165.56 484.532 165.074 485.672 164.468C486.651 163.944 488.023 163.582 488.452 162.752C489.726 160.333 492.13 159.575 494.176 158.286C495.193 157.651 496.492 157.294 497.245 156.445C498.413 155.116 499.849 154.416 501.385 153.776C501.876 153.571 502.441 153.34 502.946 153.375C505.286 153.565 505.284 153.596 505.763 151.112C506.44 151.076 507.193 151.117 507.899 150.958C508.783 150.759 510.004 150.635 510.428 150.032C511.242 148.876 511.985 148.326 513.451 148.551C514.098 148.646 514.936 148.207 515.545 147.792C518.437 145.805 521.116 143.43 524.192 141.786C527.246 140.161 529.053 137.364 531.55 135.246C539.395 128.542 547.978 123.028 557.24 118.492C563.897 115.239 570.49 111.867 577.156 108.635C580.403 107.065 583.715 105.603 587.061 104.257C587.956 103.893 589.147 103.912 590.116 104.144C592.584 104.726 594.997 105.512 597.325 106.189C597.849 107.322 598.318 108.348 598.86 109.524C598.469 110.243 598.041 111.042 597.52 112.001C598.352 112.72 599.116 113.373 600.027 114.149C598.454 116.403 598.804 118.726 599.743 121.068C599.868 121.377 599.976 121.912 599.975 122.243C599.951 125.328 599.887 128.409 599.895 131.485C599.895 132.096 600.165 132.705 600.328 133.358C602.03 133.329 602.971 132.595 603.59 131.26C604.926 128.38 606.82 125.982 609.661 124.436C610.534 122.114 612.647 121.057 614.406 119.582C616.021 118.232 617.252 116.442 618.858 115.07C619.54 114.485 621.024 114.762 621.595 114.139C622.189 113.485 622.017 112.2 622.361 111.26C622.539 110.775 623.131 110.453 623.541 110.057C624.485 109.137 625.324 108.076 626.39 107.331C627.685 106.425 629.169 105.781 630.406 105.119C633.111 105.884 635.592 106.581 638.073 107.288C638.576 108.42 639.107 109.606 639.736 111.036C638.423 113.266 638.592 115.659 640.175 117.994C640.429 118.363 640.544 118.816 640.472 119.256C639.974 122.474 640.183 125.636 640.732 128.842C641.015 130.477 640.594 132.25 640.479 133.94C640.385 135.321 640.23 136.688 640.013 138.051C639.851 139.065 639.764 140.198 639.326 141.152C637.708 144.676 636.11 148.212 634.321 151.652C632.15 155.843 629.809 159.939 627.347 164.442C628.241 164.554 628.82 164.728 629.374 164.663C629.814 164.599 630.22 164.254 630.621 164.002C635.086 161.138 639.542 158.242 644.025 155.41C646.82 153.633 649.607 151.814 652.531 150.273C653.907 149.549 655.589 149.343 657.161 149.088C658.115 148.935 658.764 148.679 659.019 147.682C659.121 147.243 659.293 146.696 659.619 146.47C662.29 144.684 665.008 142.964 667.707 141.232C667.925 141.682 668.142 142.142 668.371 142.593C668.9 142.277 669.43 141.95 669.97 141.635C669.906 141.506 669.832 141.377 669.768 141.249C669.062 141.273 668.346 141.286 667.639 141.311C668.563 139.913 669.795 139.635 671.369 140.115C672.12 140.342 672.965 140.255 673.76 140.309C673.791 139.845 673.88 139.603 673.804 139.504C673.213 138.75 672.366 137.946 673.44 137.088C674.328 136.371 675.301 135.164 676.621 136.031C677.583 136.666 678.12 136.381 678.362 135.569C679.125 132.888 681.095 132.266 683.744 132.322C683.601 130.915 684.072 130.098 685.739 130.118C686.898 130.135 688.072 129.635 689.232 129.341C690.15 129.104 691.043 128.781 691.967 128.596C694.521 128.076 694.838 127.528 693.84 124.53C697.058 122.16 700.375 119.715 703.998 117.031C704.027 117.976 704.039 118.567 704.061 119.303C704.324 119.093 704.665 118.961 704.676 118.796C704.871 116.542 706.603 115.604 708.169 114.375C712.493 110.983 716.683 107.437 720.902 103.914C722.561 102.526 723.97 100.716 725.822 99.6932C727.297 98.8722 729.513 98.288 730.96 98.8111C732.558 99.3964 734.21 99.6333 735.793 100.135C738.511 101.014 739.993 102.834 739.367 105.494C738.989 107.083 739.19 108.402 739.544 109.896C740.308 113.138 740.743 116.346 739.634 119.698C739.165 121.116 739.709 122.862 739.695 124.445C739.681 125.562 739.533 126.681 739.363 127.798C739.125 129.47 738.867 131.14 738.517 132.783C738.348 133.59 737.828 134.828 737.417 135.545C734.53 140.506 731.911 145.639 727.491 149.532C726.73 150.205 726.147 151.159 725.71 152.092C723.572 156.565 720.315 160.267 717.504 164.27C716.379 165.87 715.649 167.767 714.872 169.589C714.712 169.971 715.084 170.597 715.239 171.208C718.292 170.505 720.379 168.473 722.769 167.01C724.207 166.135 725.43 164.913 726.831 163.963C733.168 159.632 739.758 155.69 745.785 150.882C748.732 148.536 752.213 146.878 755.466 144.915C755.79 144.719 756.23 144.646 756.456 144.381C759.416 140.928 764.085 139.786 767.178 136.518C767.569 136.099 768.048 135.769 768.58 135.557C772.17 134.124 775.046 131.607 778.071 129.338C780.114 127.8 782.052 126.12 784.038 124.505C785.508 123.311 786.894 121.977 788.477 120.946C794.886 116.764 800.419 111.601 805.686 106.089C807.181 104.524 808.931 103.172 810.668 101.862C811.072 101.558 811.913 101.688 812.516 101.812C814.427 102.211 816.361 102.571 818.205 103.194C819.329 103.581 820.366 104.345 821.319 105.104C822.194 105.806 822.603 106.807 821.938 107.89C820.936 109.52 821.391 110.763 822.525 111.461C822.415 113.08 822.328 114.347 822.242 115.615C822.222 115.904 822.345 116.243 822.226 116.463C820.476 119.792 822.276 123.342 821.581 126.712C820.623 131.358 820.164 135.966 816.832 140.016C810.437 147.791 805.415 156.561 800.267 165.209C795.647 172.961 791.478 180.929 788.23 189.365C787.954 190.071 787.728 190.801 787.463 191.508C786.539 193.961 786.765 196.275 787.899 198.662C789.966 203.017 793.638 205.1 798.347 203.972C804.742 202.44 810.87 200.113 816.776 197.233C820.442 195.443 824.037 193.483 827.649 191.575C829.659 190.511 831.893 189.669 833.568 188.199C835.74 186.286 837.887 184.279 837.907 180.78C837.926 178.824 839.2 176.861 840.025 174.939C841.801 170.763 843.719 166.638 845.436 162.426C846.144 160.694 846.329 158.739 847.027 157.005C848.5 153.326 850.195 149.745 851.728 146.091C852.495 144.269 853.11 142.384 853.785 140.525C855.543 135.706 857.21 130.849 859.089 126.079C860.469 122.559 862.171 119.165 863.611 115.67C865.089 112.074 866.355 108.381 867.843 104.785C870.173 99.1762 872.624 93.617 874.994 88.0211C876.771 83.8346 878.427 79.5983 880.245 75.4249C882.174 70.9795 884.234 66.5947 886.234 62.1748C886.857 60.7883 887.45 59.3893 888.112 58.0262C891.053 51.9722 893.893 45.8699 898.021 40.4768C899 39.1973 899.89 37.8393 900.61 36.3973C903.036 31.4991 907.561 31.4036 912.068 31.2759C913.19 31.2384 914.316 31.5947 915.445 31.7545C917.098 31.9914 918.315 33.4413 918.213 35.1014C918.082 37.3292 917.848 39.5602 917.51 41.774C916.821 46.2728 916.385 50.8511 915.196 55.2331C913.742 60.6118 912.247 65.998 909.362 70.9271C907.064 74.8503 905.564 79.2318 903.655 83.3783C902.39 86.1294 901.105 88.8687 899.952 91.6585C896.366 100.35 892.87 109.08 889.415 117.832C886.512 125.162 883.64 132.495 880.839 139.863C878.415 146.242 876.092 152.67 873.759 159.086C873.415 160.026 873.314 161.054 873.012 162.452C873.933 162.163 874.506 162.13 874.888 161.845C877.923 159.577 880.864 157.168 883.957 154.976C886.864 152.907 889.924 151.044 892.908 149.073C893.364 148.773 893.956 148.451 894.132 147.997C894.82 146.263 896.461 145.898 897.851 145.113C898.983 144.475 900.297 143.902 901.068 142.93C903.53 139.794 906.812 137.709 909.933 135.395C912.988 133.139 916.227 131.081 918.278 127.742C918.966 126.618 919.403 125.064 920.407 124.47C924.748 121.907 927.112 117.316 931.15 114.484C931.693 114.107 932.13 113.474 932.714 113.266C935.667 112.214 937.26 109.671 939.308 107.595C940.388 106.499 941.866 105.792 943.398 104.747C943.463 104.399 943.352 103.439 943.773 102.898C945.625 100.508 947.634 98.2321 949.562 95.9508C950.806 96.398 951.788 96.7445 952.901 97.1414C952.57 99.5626 949.472 100.47 949.441 103.056C950.468 103.955 951.684 103.613 951.974 102.846C952.541 101.362 953.808 101.169 954.887 100.549C956.787 99.4358 958.482 98.1327 959.514 96.0595C960.007 95.0576 960.822 94.1916 961.575 93.342C962.65 92.152 962.42 91.8774 964.193 93.0856C963.301 93.5632 963.837 94.511 962.757 94.8516L962.377 96.1718C962.382 96.255 962.355 96.3463 962.298 96.415C959.289 100.29 956.871 103.832 953.76 107.824C957.331 107.281 958.3 103.702 961.107 102.806C962.859 104.333 961.597 105.355 960.706 106.423C959.871 107.423 959.055 108.444 958.242 109.434C959.183 110.99 960.493 111.234 962.04 110.729C962.406 112.514 961.577 113.586 960.791 114.63C958.18 118.118 955.45 121.535 952.909 125.069C951.364 127.211 950.127 129.56 948.661 131.759C947.887 132.928 946.954 134.004 946.051 135.092C945.509 135.748 944.799 136.28 944.327 136.973C940.849 142.089 936.14 146.107 932.145 150.753C931.11 151.956 929.702 152.844 928.462 153.868C928.166 154.106 927.78 154.287 927.583 154.595C924.981 158.57 920.916 161.047 917.617 164.291C916.818 165.075 915.958 165.68 916.026 167.113C916.069 167.862 915.228 168.798 914.573 169.427C909.03 174.744 903.495 180.093 897.547 184.959C896.943 185.456 896.264 185.845 895.595 186.234C894.299 186.995 893.282 188.396 891.312 187.796C889.891 187.357 887.376 189.433 887.331 191.014C887.295 192.161 886.873 192.722 886.006 193.274C885.302 193.723 884.719 194.377 884.09 194.935C882.866 196.011 881.63 196.973 879.832 196.902C878.208 196.843 877.126 197.525 876.969 199.368C876.92 199.935 876.419 200.605 875.938 200.976C872.835 203.311 869.666 205.57 866.545 207.874C865.553 208.604 864.598 209.377 863.654 210.152C862.031 211.47 860.51 212.961 858.165 212.853C857.834 212.841 857.434 213.083 857.169 213.324C855.624 214.699 853.902 215.949 852.642 217.561C851.496 219.015 850.71 220.826 850.051 222.583C847.977 228.095 846.014 233.646 844.051 239.197C841.523 246.356 839.014 253.527 836.526 260.709C833.936 268.154 831.346 275.609 828.838 283.08C827.683 286.502 826.813 290.004 825.628 293.413C823.188 300.485 820.636 307.529 818.105 314.574C815.447 321.972 812.748 329.348 810.079 336.746C808.457 341.243 807.107 345.862 805.133 350.201C803.634 353.506 802.344 357.073 799.139 359.558M251.014 216.756C249.601 216.66 248.87 216.434 248.236 216.608C247.054 216.931 245.902 217.412 244.788 217.937C240.956 219.736 237.019 220.928 233.275 220.362C232.027 221.333 231.223 222.345 230.206 222.659C227.495 223.52 224.691 224.054 221.937 224.777C220.766 225.081 219.627 225.521 218.481 225.919C216.177 226.725 213.88 227.583 211.57 228.337C210.319 228.749 208.916 228.808 207.747 229.381C203.823 231.309 199.114 230.595 195.397 233.137C195.245 233.241 195.057 233.269 194.873 233.226C192.314 232.596 190.271 233.999 188.049 234.811C186.009 235.552 183.802 235.857 181.79 236.642C178.298 237.998 174.512 238.051 171.031 239.698C167.84 241.21 164.188 241.728 160.733 242.693C160.459 242.768 160.201 242.905 159.936 242.991C157.16 243.879 154.41 244.851 151.601 245.623C149.911 246.087 148.086 246.098 146.396 246.562C143.028 247.482 139.726 248.634 136.367 249.565C135.501 249.806 134.515 249.522 133.588 249.593C132.504 249.675 130.919 249.515 130.462 250.136C129.663 251.221 128.609 251.49 127.594 251.773C124.033 252.784 120.429 253.656 116.836 254.53C115.74 254.797 114.576 254.842 113.488 255.151C108.933 256.445 104.383 257.813 99.8368 259.139C98.663 259.484 97.4624 259.764 96.2872 260.129C93.206 261.089 90.1509 262.124 87.0527 263.031C81.227 264.726 75.3328 266.209 69.5407 268.019C63.1981 270 56.8513 272.042 50.6561 274.447C45.5357 276.438 40.5901 278.907 35.648 281.325C34.1044 282.079 32.4238 282.866 31.2522 284.701C32.1121 285.164 32.7175 285.557 33.383 285.83C34.7049 286.355 36.0407 286.829 37.3875 287.294C41.8852 288.822 46.3842 290.33 50.8832 291.838C55.3314 293.332 59.9893 293.722 64.5962 294.253C70.2414 294.907 75.8753 295.882 81.6176 295.413C83.7851 295.24 85.9803 295.421 88.1696 295.384C92.3412 295.306 96.5202 295.269 100.691 295.057C103.051 294.938 105.395 294.456 107.755 294.202C110.585 293.888 113.469 293.846 116.262 293.301C123.445 291.917 130.718 290.745 137.718 288.696C146.357 286.167 154.832 282.997 163.249 279.78C168.463 277.785 173.448 275.194 178.52 272.848C186.897 268.987 194.926 264.46 202.684 259.5C208.989 255.467 215.126 251.184 220.798 246.259C223.232 244.147 225.966 242.345 228.284 240.121C235.115 233.545 241.83 226.837 248.546 220.14C249.335 219.355 249.87 218.335 251.014 216.756ZM597.028 140.122C587.15 141.365 578.381 144.278 569.879 148.14C568.275 148.87 566.689 149.642 565.111 150.435C565.047 150.462 564.983 150.499 564.928 150.537C563.145 151.606 561.389 152.739 559.606 153.819C557.682 154.982 555.328 155.774 553.922 157.387C552.136 159.43 549.835 160.65 547.754 162.144C545.847 163.516 544.076 164.71 543.654 166.649C542.494 167.098 541.451 167.193 540.956 167.77C539.428 169.519 538.025 171.401 536.753 173.344C535.909 174.633 535.661 176.449 534.608 177.454C531.416 180.509 529.311 184.331 526.772 187.834C525.536 189.552 525.011 191.784 524.17 193.787C525.512 193.568 526.425 193.091 527.253 192.496C530.699 189.976 534.127 187.424 537.554 184.883C542.738 181.042 547.856 177.104 553.153 173.426C554.861 172.248 556.183 169.864 558.983 170.759C559.288 170.852 560.109 170.048 560.343 169.505C561.068 167.836 562.313 167.051 564.227 166.953C563.805 164.16 566.341 163.898 567.982 162.777C567.75 163.3 567.517 163.833 567.295 164.356C568.434 163.751 569.179 162.704 570.181 162.14C574.795 159.524 578.032 155.054 582.902 152.787C582.987 152.751 583.116 152.688 583.12 152.615C583.408 150.668 585.284 150.06 586.411 148.874C588.733 146.433 591.386 144.304 593.903 142.032M54.7474 321.282C54.76 321.096 54.7719 320.921 54.7845 320.736C54.1037 320.689 53.4125 320.642 52.7316 320.596C52.719 320.781 52.7071 320.956 52.6945 321.142C53.3754 321.188 54.0665 321.235 54.7474 321.282ZM250.185 212.34C250.275 212.533 250.366 212.725 250.467 212.918C250.96 212.673 251.453 212.437 251.946 212.191C251.884 212.042 251.821 211.903 251.758 211.754C251.237 211.956 250.706 212.148 250.185 212.34ZM486.18 199.523C485.646 199.911 485.438 200.073 485.231 200.225C485.475 200.448 485.685 200.711 485.966 200.844C486.036 200.88 486.433 200.534 486.456 200.339C486.494 200.093 486.295 199.821 486.18 199.523ZM394.323 110.692C394.137 110.534 393.95 110.377 393.764 110.219C393.419 110.568 393.085 110.908 392.74 111.257C392.885 111.412 393.04 111.578 393.185 111.733C393.56 111.396 393.946 111.05 394.323 110.692ZM70.7263 323.448C70.4143 323.768 70.0901 323.964 70.1112 324.11C70.1385 324.319 70.3995 324.596 70.6037 324.641C70.7976 324.685 71.0503 324.474 71.2857 324.366C71.1271 324.107 70.9692 323.837 70.7263 323.448ZM263.559 186.815C263.293 186.766 263.061 186.667 262.831 186.693C262.737 186.707 262.677 186.973 262.605 187.123C262.828 187.2 263.058 187.32 263.285 187.335C263.346 187.35 263.438 187.066 263.559 186.815ZM533.353 227.922C533.169 227.733 532.978 227.492 532.946 227.511C532.75 227.653 532.583 227.828 532.405 228.002C532.521 228.124 532.691 228.363 532.744 228.346C532.968 228.247 533.146 228.073 533.353 227.922Z" fill="url(#paint0_linear_37_510)"/>
<defs>
<linearGradient id="paint0_linear_37_510" x1="495.014" y1="2.82533" x2="471.115" y2="353.492" gradientUnits="userSpaceOnUse">
<stop stop-color="white"/>
<stop offset="0.558252" stop-color="#CE6300"/>
</linearGradient>
</defs>
</svg>
